<!DOCTYPE svg PUBLIC "-//W3C//DTD SVG 1.1//EN" "http://www.w3.org/Graphics/SVG/1.1/DTD/svg11.dtd">
<!-- Uploaded to: SVG Repo, www.svgrepo.com, Transformed by: SVG Repo Mixer Tools -->
<svg width="800px" height="800px" viewBox="0 0 48 48" fill="none" xmlns="http://www.w3.org/2000/svg">
<g id="SVGRepo_bgCarrier" stroke-width="0"/>
<g id="SVGRepo_tracerCarrier" stroke-linecap="round" stroke-linejoin="round"/>
<g id="SVGRepo_iconCarrier"> <g id="lock"> <g id="lock_2"> <path id="Combined Shape" fill-rule="evenodd" clip-rule="evenodd" d="M14 22V24.0576C14 24.6099 13.5523 25.0576 13 25.0576C12.4477 25.0576 12 24.6099 12 24.0576V22H10C9.44828 22 9 22.4483 9 23V41C9 41.5517 9.44828 42 10 42H38C38.5517 42 39 41.5517 39 41V23C39 22.4483 38.5517 22 38 22H14ZM14 20H30V16.0014C30 12.6889 27.313 10.0014 24 10.0014C21.3046 10.0014 18.9603 11.7966 18.2299 14.3488C18.078 14.883 18 15.4372 18 16.0014V17.0154C18 17.5677 17.5523 18.0154 17 18.0154C16.4477 18.0154 16 17.5677 16 17.0154V16.0014C16 15.2514 16.1039 14.5131 16.3066 13.8002C17.2815 10.3939 20.4057 8.00137 24 8.00137C28.4176 8.00137 32 11.5844 32 16.0014V20H38C39.6563 20 41 21.3437 41 23V41C41 42.6563 39.6563 44 38 44H10C8.34372 44 7 42.6563 7 41V23C7 21.3437 8.34372 20 10 20H12V15.9996C12 9.37263 17.3724 3.99957 24 3.99957C29.393 3.99957 34.0785 7.58754 35.5396 12.6991C35.8436 13.7644 36 14.8731 36 15.9996V17.0376C36 17.5899 35.5523 18.0376 35 18.0376C34.4477 18.0376 34 17.5899 34 17.0376V15.9996C34 15.0595 33.8697 14.1355 33.6165 13.2484C32.3993 8.99001 28.4941 5.99957 24 5.99957C18.477 5.99957 14 10.4771 14 15.9996V20ZM24 30C22.8943 30 22 30.8943 22 32C22 32.5523 21.5523 33 21 33C20.4477 33 20 32.5523 20 32C20 29.7897 21.7897 28 24 28C26.2103 28 28 29.7897 28 32C28 34.2103 26.2103 36 24 36C23.4477 36 23 35.5523 23 35C23 34.4477 23.4477 34 24 34C25.1057 34 26 33.1057 26 32C26 30.8943 25.1057 30 24 30Z" fill="#767676"/> </g> </g> </g>
</svg>